HIERARCHY
ROOT mixamorig:Hips
{
	OFFSET 0.000000 103.991501 0.000000
	CHANNELS 6 Xposition Yposition Zposition Xrotation Yrotation Zrotation
	JOINT mixamorig:Spine
	{
		OFFSET 0.000000 10.181602 0.131500
		CHANNELS 6 Xposition Yposition Zposition Xrotation Yrotation Zrotation
		JOINT mixamorig:Spine1
		{
			OFFSET 0.000000 10.083504 -1.000800
			CHANNELS 6 Xposition Yposition Zposition Xrotation Yrotation Zrotation
			JOINT mixamorig:Spine2
			{
				OFFSET 0.000000 9.100006 -1.373400
				CHANNELS 6 Xposition Yposition Zposition Xrotation Yrotation Zrotation
				JOINT mixamorig:Neck
				{
					OFFSET 0.000000 16.671707 -2.516200
					CHANNELS 6 Xposition Yposition Zposition Xrotation Yrotation Zrotation
					JOINT mixamorig:Head
					{
						OFFSET 0.000000 9.617905 1.685000
						CHANNELS 6 Xposition Yposition Zposition Xrotation Yrotation Zrotation
						JOINT mixamorig:HeadTop_End
						{
							OFFSET 0.000000 17.815201 2.585000
							CHANNELS 6 Xposition Yposition Zposition Xrotation Yrotation Zrotation
							End Site
							{
								OFFSET 0.000000 13.794495 0.000000
							}
						}
						JOINT mixamorig:LeftEye
						{
							OFFSET 3.067600 6.409500 9.283600
							CHANNELS 6 Xposition Yposition Zposition Xrotation Yrotation Zrotation
							End Site
							{
								OFFSET 0.000000 13.794495 0.000000
							}
						}
						JOINT mixamorig:RightEye
						{
							OFFSET -3.067600 6.409500 9.283500
							CHANNELS 6 Xposition Yposition Zposition Xrotation Yrotation Zrotation
							End Site
							{
								OFFSET 0.000000 13.794495 0.000000
							}
						}
					}
				}
				JOINT mixamorig:LeftShoulder
				{
					OFFSET 4.570400 10.945999 -2.628000
					CHANNELS 6 Xposition Yposition Zposition Xrotation Yrotation Zrotation
					JOINT mixamorig:LeftArm
					{
						OFFSET 10.592400 -0.524597 -2.232100
						CHANNELS 6 Xposition Yposition Zposition Xrotation Yrotation Zrotation
						JOINT mixamorig:LeftForeArm
						{
							OFFSET 27.841499 0.000000 0.000000
							CHANNELS 6 Xposition Yposition Zposition Xrotation Yrotation Zrotation
							JOINT mixamorig:LeftHand
							{
								OFFSET 28.328800 0.000000 0.000000
								CHANNELS 6 Xposition Yposition Zposition Xrotation Yrotation Zrotation
								JOINT mixamorig:LeftHandThumb1
								{
									OFFSET 2.466103 -1.576218 2.681689
									CHANNELS 6 Xposition Yposition Zposition Xrotation Yrotation Zrotation
									JOINT mixamorig:LeftHandThumb2
									{
										OFFSET 3.229782 -1.864716 1.864716
										CHANNELS 6 Xposition Yposition Zposition Xrotation Yrotation Zrotation
										JOINT mixamorig:LeftHandThumb3
										{
											OFFSET 2.652611 -1.531494 1.531488
											CHANNELS 6 Xposition Yposition Zposition Xrotation Yrotation Zrotation
											JOINT mixamorig:LeftHandThumb4
											{
												OFFSET 1.954605 -1.128494 1.128493
												CHANNELS 6 Xposition Yposition Zposition Xrotation Yrotation Zrotation
												End Site
												{
													OFFSET -0.000404 2.523392 0.000683
												}
											}
										}
									}
								}
								JOINT mixamorig:LeftHandIndex1
								{
									OFFSET 9.109299 -0.518112 2.259867
									CHANNELS 6 Xposition Yposition Zposition Xrotation Yrotation Zrotation
									JOINT mixamorig:LeftHandIndex2
									{
										OFFSET 3.676399 0.000000 0.000000
										CHANNELS 6 Xposition Yposition Zposition Xrotation Yrotation Zrotation
										JOINT mixamorig:LeftHandIndex3
										{
											OFFSET 2.883102 0.000000 0.000000
											CHANNELS 6 Xposition Yposition Zposition Xrotation Yrotation Zrotation
											JOINT mixamorig:LeftHandIndex4
											{
												OFFSET 2.392700 0.000000 0.000000
												CHANNELS 6 Xposition Yposition Zposition Xrotation Yrotation Zrotation
												End Site
												{
													OFFSET 0.000000 2.392700 0.001080
												}
											}
										}
									}
								}
								JOINT mixamorig:LeftHandMiddle1
								{
									OFFSET 9.533401 0.000000 0.000000
									CHANNELS 6 Xposition Yposition Zposition Xrotation Yrotation Zrotation
									JOINT mixamorig:LeftHandMiddle2
									{
										OFFSET 3.698196 0.000000 0.000000
										CHANNELS 6 Xposition Yposition Zposition Xrotation Yrotation Zrotation
										JOINT mixamorig:LeftHandMiddle3
										{
											OFFSET 2.950897 0.000000 0.000000
											CHANNELS 6 Xposition Yposition Zposition Xrotation Yrotation Zrotation
											JOINT mixamorig:LeftHandMiddle4
											{
												OFFSET 2.833900 0.000000 0.000000
												CHANNELS 6 Xposition Yposition Zposition Xrotation Yrotation Zrotation
												End Site
												{
													OFFSET 0.000000 2.833893 0.001278
												}
											}
										}
									}
								}
								JOINT mixamorig:LeftHandRing1
								{
									OFFSET 9.104500 -0.043060 -1.865119
									CHANNELS 6 Xposition Yposition Zposition Xrotation Yrotation Zrotation
									JOINT mixamorig:LeftHandRing2
									{
										OFFSET 3.153999 0.000000 0.000000
										CHANNELS 6 Xposition Yposition Zposition Xrotation Yrotation Zrotation
										JOINT mixamorig:LeftHandRing3
										{
											OFFSET 2.937698 0.000000 0.000000
											CHANNELS 6 Xposition Yposition Zposition Xrotation Yrotation Zrotation
											JOINT mixamorig:LeftHandRing4
											{
												OFFSET 2.647499 0.000000 0.000000
												CHANNELS 6 Xposition Yposition Zposition Xrotation Yrotation Zrotation
												End Site
												{
													OFFSET 0.000000 2.647507 0.001195
												}
											}
										}
									}
								}
								JOINT mixamorig:LeftHandPinky1
								{
									OFFSET 8.077797 -0.486984 -3.806321
									CHANNELS 6 Xposition Yposition Zposition Xrotation Yrotation Zrotation
									JOINT mixamorig:LeftHandPinky2
									{
										OFFSET 3.599998 0.000000 0.000000
										CHANNELS 6 Xposition Yposition Zposition Xrotation Yrotation Zrotation
										JOINT mixamorig:LeftHandPinky3
										{
											OFFSET 2.114197 0.000000 0.000000
											CHANNELS 6 Xposition Yposition Zposition Xrotation Yrotation Zrotation
											JOINT mixamorig:LeftHandPinky4
											{
												OFFSET 1.975700 0.000000 0.000000
												CHANNELS 6 Xposition Yposition Zposition Xrotation Yrotation Zrotation
												End Site
												{
													OFFSET 0.000000 1.975693 0.000892
												}
											}
										}
									}
								}
							}
						}
					}
				}
				JOINT mixamorig:RightShoulder
				{
					OFFSET -4.570000 10.946198 -2.628000
					CHANNELS 6 Xposition Yposition Zposition Xrotation Yrotation Zrotation
					JOINT mixamorig:RightArm
					{
						OFFSET -10.592800 -0.524796 -2.232100
						CHANNELS 6 Xposition Yposition Zposition Xrotation Yrotation Zrotation
						JOINT mixamorig:RightForeArm
						{
							OFFSET -27.841499 0.000000 0.000000
							CHANNELS 6 Xposition Yposition Zposition Xrotation Yrotation Zrotation
							JOINT mixamorig:RightHand
							{
								OFFSET -28.328800 0.000000 0.000000
								CHANNELS 6 Xposition Yposition Zposition Xrotation Yrotation Zrotation
								JOINT mixamorig:RightHandPinky1
								{
									OFFSET -8.076698 -0.486725 -3.806227
									CHANNELS 6 Xposition Yposition Zposition Xrotation Yrotation Zrotation
									JOINT mixamorig:RightHandPinky2
									{
										OFFSET -3.599998 0.000000 0.000000
										CHANNELS 6 Xposition Yposition Zposition Xrotation Yrotation Zrotation
										JOINT mixamorig:RightHandPinky3
										{
											OFFSET -2.114197 0.000000 0.000000
											CHANNELS 6 Xposition Yposition Zposition Xrotation Yrotation Zrotation
											JOINT mixamorig:RightHandPinky4
											{
												OFFSET -1.975700 0.000000 0.000000
												CHANNELS 6 Xposition Yposition Zposition Xrotation Yrotation Zrotation
												End Site
												{
													OFFSET 0.000000 1.975693 0.000919
												}
											}
										}
									}
								}
								JOINT mixamorig:RightHandRing1
								{
									OFFSET -9.103600 -0.043030 -1.865120
									CHANNELS 6 Xposition Yposition Zposition Xrotation Yrotation Zrotation
									JOINT mixamorig:RightHandRing2
									{
										OFFSET -3.153999 0.000000 0.000000
										CHANNELS 6 Xposition Yposition Zposition Xrotation Yrotation Zrotation
										JOINT mixamorig:RightHandRing3
										{
											OFFSET -2.937698 0.000000 0.000000
											CHANNELS 6 Xposition Yposition Zposition Xrotation Yrotation Zrotation
											JOINT mixamorig:RightHandRing4
											{
												OFFSET -2.647499 0.000000 0.000000
												CHANNELS 6 Xposition Yposition Zposition Xrotation Yrotation Zrotation
												End Site
												{
													OFFSET 0.000000 2.647507 0.001231
												}
											}
										}
									}
								}
								JOINT mixamorig:RightHandMiddle1
								{
									OFFSET -9.532501 0.000000 0.000000
									CHANNELS 6 Xposition Yposition Zposition Xrotation Yrotation Zrotation
									JOINT mixamorig:RightHandMiddle2
									{
										OFFSET -3.698196 0.000000 0.000000
										CHANNELS 6 Xposition Yposition Zposition Xrotation Yrotation Zrotation
										JOINT mixamorig:RightHandMiddle3
										{
											OFFSET -2.950897 0.000000 0.000000
											CHANNELS 6 Xposition Yposition Zposition Xrotation Yrotation Zrotation
											JOINT mixamorig:RightHandMiddle4
											{
												OFFSET -2.833900 0.000000 0.000000
												CHANNELS 6 Xposition Yposition Zposition Xrotation Yrotation Zrotation
												End Site
												{
													OFFSET 0.000000 2.833893 0.001318
												}
											}
										}
									}
								}
								JOINT mixamorig:RightHandIndex1
								{
									OFFSET -9.108299 -0.517853 2.259859
									CHANNELS 6 Xposition Yposition Zposition Xrotation Yrotation Zrotation
									JOINT mixamorig:RightHandIndex2
									{
										OFFSET -3.676399 0.000000 0.000000
										CHANNELS 6 Xposition Yposition Zposition Xrotation Yrotation Zrotation
										JOINT mixamorig:RightHandIndex3
										{
											OFFSET -2.883102 0.000000 0.000000
											CHANNELS 6 Xposition Yposition Zposition Xrotation Yrotation Zrotation
											JOINT mixamorig:RightHandIndex4
											{
												OFFSET -2.392700 0.000000 0.000000
												CHANNELS 6 Xposition Yposition Zposition Xrotation Yrotation Zrotation
												End Site
												{
													OFFSET 0.000000 2.392700 0.001113
												}
											}
										}
									}
								}
								JOINT mixamorig:RightHandThumb1
								{
									OFFSET -2.464798 -1.573944 2.681868
									CHANNELS 6 Xposition Yposition Zposition Xrotation Yrotation Zrotation
									JOINT mixamorig:RightHandThumb2
									{
										OFFSET -3.229782 -1.864716 1.864716
										CHANNELS 6 Xposition Yposition Zposition Xrotation Yrotation Zrotation
										JOINT mixamorig:RightHandThumb3
										{
											OFFSET -2.652542 -1.531448 1.531448
											CHANNELS 6 Xposition Yposition Zposition Xrotation Yrotation Zrotation
											JOINT mixamorig:RightHandThumb4
											{
												OFFSET -1.954605 -1.128494 1.128493
												CHANNELS 6 Xposition Yposition Zposition Xrotation Yrotation Zrotation
												End Site
												{
													OFFSET 0.000412 2.523392 0.000704
												}
											}
										}
									}
								}
							}
						}
					}
				}
			}
		}
	}
	JOINT mixamorig:LeftUpLeg
	{
		OFFSET 8.207800 -6.751701 -1.599600
		CHANNELS 6 Xposition Yposition Zposition Xrotation Yrotation Zrotation
		JOINT mixamorig:LeftLeg
		{
			OFFSET 0.000000 -44.370499 0.284600
			CHANNELS 6 Xposition Yposition Zposition Xrotation Yrotation Zrotation
			JOINT mixamorig:LeftFoot
			{
				OFFSET 0.000000 -44.427898 -2.982200
				CHANNELS 6 Xposition Yposition Zposition Xrotation Yrotation Zrotation
				JOINT mixamorig:LeftToeBase
				{
					OFFSET 0.000000 -8.728700 10.710600
					CHANNELS 6 Xposition Yposition Zposition Xrotation Yrotation Zrotation
					JOINT mixamorig:LeftToe_End
					{
						OFFSET 0.000000 -0.000700 9.278099
						CHANNELS 6 Xposition Yposition Zposition Xrotation Yrotation Zrotation
						End Site
						{
							OFFSET 0.000000 9.278100 0.000000
						}
					}
				}
			}
		}
	}
	JOINT mixamorig:RightUpLeg
	{
		OFFSET -8.207800 -6.751701 -1.599600
		CHANNELS 6 Xposition Yposition Zposition Xrotation Yrotation Zrotation
		JOINT mixamorig:RightLeg
		{
			OFFSET 0.000000 -44.370499 0.286200
			CHANNELS 6 Xposition Yposition Zposition Xrotation Yrotation Zrotation
			JOINT mixamorig:RightFoot
			{
				OFFSET 0.000000 -44.427700 -2.983800
				CHANNELS 6 Xposition Yposition Zposition Xrotation Yrotation Zrotation
				JOINT mixamorig:RightToeBase
				{
					OFFSET 0.000000 -8.728700 10.710600
					CHANNELS 6 Xposition Yposition Zposition Xrotation Yrotation Zrotation
					JOINT mixamorig:RightToe_End
					{
						OFFSET 0.000000 -0.000700 9.278100
						CHANNELS 6 Xposition Yposition Zposition Xrotation Yrotation Zrotation
						End Site
						{
							OFFSET 0.000000 9.278100 0.000000
						}
					}
				}
			}
		}
	}
}
MOTION
Frames: 3
Frame Time: 0.016667
0.762277 137.570587 -1.734465 -13.968857 -6.258523 0.538656 -0.000000 10.181592 0.131500 33.589013 -10.008718 0.317540 -0.000002 10.083480 -1.000791 -8.508571 -1.684912 0.957168 -0.000000 9.100011 -1.373397 -8.464279 -1.687498 1.258753 0.000000 16.671694 -2.516201 14.273981 3.167707 -4.762735 -0.000002 9.617904 1.685010 -1.230476 19.962106 -10.886092 0.000000 17.815216 2.585004 0.000001 0.000000 -0.000001 3.067601 6.409515 9.283602 0.000001 0.000000 -0.000001 -3.067601 6.409531 9.283501 0.000001 0.000000 -0.000001 4.570402 10.945998 -2.628000 -2.574670 9.762159 17.341253 10.592411 -0.524576 -2.232118 -32.308349 22.368603 -60.315645 27.841492 0.000002 0.000016 0.000015 -59.867066 0.000012 28.328796 0.000016 0.000002 36.445094 12.991880 32.952507 2.466092 -1.576221 2.681686 3.369994 8.961899 0.820019 3.229798 -1.864707 1.864725 1.207826 -0.209694 -1.051042 2.652629 -1.531475 1.531501 -2.038516 -0.972448 2.943800 1.954616 -1.128474 1.128478 -0.000001 0.000003 -0.000001 9.109304 -0.518094 2.259871 1.050813 3.662362 -32.822255 3.676390 -0.000031 0.000003 -0.000001 0.000006 -0.000018 2.883090 0.000002 -0.000003 0.023620 -0.571101 4.737802 2.392694 0.000003 0.000007 0.000000 -0.000000 -0.000000 9.533391 0.000003 0.000005 1.007825 3.640131 -26.730340 3.698195 0.000003 -0.000003 0.026639 0.606370 -5.031159 2.950906 -0.000002 0.000002 0.007509 -0.322114 2.670083 2.833909 -0.000020 0.000011 0.000001 0.000001 -0.000000 9.104506 -0.043060 -1.865115 1.399178 4.405250 -26.864215 3.153988 -0.000003 -0.000007 0.026776 0.607844 -5.043439 2.937691 0.000011 0.000004 0.005891 -0.285564 2.366938 2.647504 -0.000000 -0.000000 0.000001 0.000002 0.000001 8.077785 -0.486974 -3.806320 4.797703 9.349964 -33.025792 3.599999 -0.000008 0.000001 -0.018114 -4.056668 -0.491019 2.114195 -0.000025 -0.000012 0.015075 -0.456417 3.784901 1.975685 0.000004 0.000002 -0.000002 -0.000001 0.000000 -4.570001 10.946185 -2.628000 -0.003896 -1.315903 -4.586725 -10.592796 -0.524784 -2.232102 -4.582120 -57.911876 47.334427 -27.841497 -0.000001 -0.000003 0.000135 102.780810 -0.000138 -28.328802 0.000000 0.000000 20.066975 -30.863115 -23.774119 -8.076689 -0.486717 -3.806234 -3.825698 -10.116648 -19.691702 -3.599998 0.000003 -0.000007 1.166133 -3.859524 33.613024 -2.114192 -0.000010 -0.000011 0.209721 -1.698147 14.079702 -1.975699 0.000031 0.000002 -0.000002 0.000002 -0.000001 -9.103607 -0.043038 -1.865135 -0.372687 -8.712070 -2.967121 -3.153983 -0.000027 -0.000001 0.363378 -2.222462 18.569271 -2.937699 -0.000021 0.000005 -1.354690 -1.531947 10.381038 -2.647493 -0.000001 0.000004 -0.000001 0.000002 0.000001 -9.532509 -0.000000 -0.000010 1.852650 -8.476527 13.229072 -3.698195 0.000009 0.000001 0.127873 -1.330061 10.983083 -2.950888 -0.000013 -0.000005 -0.639443 -0.445681 3.341902 -2.833894 -0.000046 -0.000008 -0.000001 0.000000 0.000001 -9.108303 -0.517845 2.259852 4.721802 -9.402965 32.332729 -3.676409 -0.000004 -0.000010 -0.000004 -0.001166 0.009533 -2.883103 -0.000011 0.000004 0.017074 0.488012 -4.007831 -2.392693 -0.000030 0.000004 0.000003 -0.000001 0.000000 -2.464795 -1.573948 2.681859 8.548931 -7.202611 10.910723 -3.229779 -1.864694 1.864711 2.908510 -3.649152 0.843569 -2.652548 -1.531447 1.531435 -1.304731 0.198265 -2.103206 -1.954610 -1.128510 1.128505 0.000002 0.000001 -0.000001 8.207800 -6.751713 -1.599602 -1.515833 -2.762729 5.595764 -0.000000 -44.370499 0.284599 32.450427 7.753760 -6.874227 0.000001 -44.427898 -2.982201 26.861942 1.940823 -8.494671 -0.000002 -8.728700 10.710594 -1.602451 -0.000001 0.000001 0.000000 -0.000698 9.278098 0.000001 0.000000 -0.000000 -8.207800 -6.751717 -1.599595 -58.138516 -0.251556 2.584850 0.000001 -44.370499 0.286209 90.870134 -4.095956 3.699743 -0.000001 -44.427715 -2.983798 -6.694444 -0.561406 5.402134 0.000001 -8.728687 10.710603 -0.698110 -0.000004 0.000004 -0.000001 -0.000702 9.278104 -0.000000 0.000000 0.000000 
0.718754 137.621307 -1.773794 -13.968198 -6.258806 0.393245 0.000000 10.181585 0.131502 33.538592 -9.927166 0.429719 -0.000001 10.083494 -1.000795 -8.492279 -1.660059 0.919940 0.000001 9.100024 -1.373400 -8.448096 -1.672311 1.221709 -0.000000 16.671703 -2.516200 14.365151 3.200206 -4.699240 0.000003 9.617883 1.685000 -1.301542 20.197499 -10.778152 -0.000002 17.815216 2.584995 0.000001 0.000001 0.000000 3.067600 6.409515 9.283596 0.000001 0.000001 0.000000 -3.067601 6.409531 9.283491 0.000001 0.000001 0.000000 4.570405 10.946020 -2.628001 -2.649946 10.041053 17.396162 10.592415 -0.524594 -2.232108 -31.773296 22.351739 -61.242147 27.841496 -0.000020 0.000001 -0.000000 -58.239882 0.000018 28.328802 0.000018 0.000001 35.821395 12.855009 33.852849 2.466117 -1.576209 2.681672 3.356618 8.777690 0.713913 3.229787 -1.864711 1.864731 1.208050 -0.209815 -1.050970 2.652627 -1.531489 1.531490 -1.946003 -0.809270 2.919587 1.954628 -1.128490 1.128493 -0.000001 0.000000 -0.000003 9.109303 -0.518101 2.259851 0.884819 3.413856 -33.444236 3.676401 -0.000027 0.000009 0.000002 0.000006 -0.000019 2.883103 0.000011 0.000003 0.023792 -0.573089 4.754433 2.392705 -0.000016 0.000001 0.000001 -0.000000 -0.000002 9.533408 0.000004 -0.000016 0.901296 3.423809 -27.189887 3.698197 -0.000023 0.000009 0.027495 0.616083 -5.112134 2.950898 -0.000026 -0.000006 0.007530 -0.322549 2.673681 2.833903 -0.000003 -0.000004 -0.000002 -0.000002 -0.000001 9.104504 -0.043073 -1.865127 1.297672 4.188571 -27.263142 3.153995 0.000022 -0.000004 0.027533 0.616306 -5.113831 2.937704 -0.000000 -0.000006 0.005959 -0.287041 2.379146 2.647492 -0.000029 -0.000003 0.000002 -0.000002 -0.000000 8.077794 -0.486982 -3.806333 4.673977 9.080329 -33.445333 3.600000 -0.000034 0.000008 -0.018110 -4.056670 -0.491020 2.114195 0.000014 0.000004 0.015381 -0.460984 3.822702 1.975699 -0.000015 -0.000003 -0.000002 -0.000002 0.000001 -4.570001 10.946217 -2.628001 -0.008582 -1.337873 -4.659030 -10.592800 -0.524794 -2.232103 -7.541142 -58.139014 44.127858 -27.841488 0.000017 0.000003 0.000141 103.656167 -0.000108 -28.328800 0.000001 -0.000002 19.668588 -31.148340 -23.507348 -8.076689 -0.486742 -3.806240 -3.738419 -9.832617 -19.705676 -3.599958 -0.000011 0.000005 1.182842 -3.884472 33.860369 -2.114207 -0.000010 0.000015 0.215844 -1.722346 14.284748 -1.975715 -0.000001 0.000007 0.000001 -0.000001 -0.000000 -9.103603 -0.043035 -1.865124 -0.361984 -8.507263 -2.940443 -3.153991 -0.000000 0.000012 0.368751 -2.238384 18.707304 -2.937687 0.000008 0.000004 -1.325047 -1.548774 10.529753 -2.647493 -0.000013 0.000003 0.000001 0.000001 0.000001 -9.532514 -0.000011 0.000004 1.823522 -8.318653 13.311970 -3.698195 -0.000008 0.000013 0.129629 -1.339058 11.058302 -2.950888 -0.000045 -0.000006 -0.630033 -0.456062 3.423866 -2.833892 -0.000017 -0.000004 -0.000003 0.000000 -0.000000 -9.108323 -0.517871 2.259863 4.653449 -9.264417 32.490120 -3.676409 -0.000013 -0.000000 0.000001 -0.001094 0.008969 -2.883109 0.000005 -0.000000 0.016823 0.484343 -3.977619 -2.392682 0.000001 -0.000003 0.000002 -0.000001 -0.000001 -2.464790 -1.573970 2.681859 7.744997 -5.891739 11.147229 -3.229789 -1.864672 1.864724 3.554302 -5.500398 0.434780 -2.652524 -1.531452 1.531445 -1.249098 0.100192 -2.089354 -1.954603 -1.128506 1.128503 -0.000000 0.000000 -0.000001 8.207799 -6.751731 -1.599601 -2.093918 -2.483575 5.830264 -0.000001 -44.370491 0.284596 34.514063 7.662449 -6.814901 -0.000001 -44.427891 -2.982203 26.995822 1.296943 -8.357271 -0.000001 -8.728698 10.710597 -1.827863 0.000003 0.000002 -0.000001 -0.000702 9.278098 -0.000001 0.000000 0.000000 -8.207799 -6.751731 -1.599599 -57.658975 -0.203803 2.856772 -0.000000 -44.370506 0.286191 88.549530 -4.362937 3.964681 -0.000001 -44.427711 -2.983806 -6.736008 -0.569588 5.478209 -0.000002 -8.728700 10.710601 -0.719592 -0.000003 0.000006 -0.000002 -0.000703 9.278097 0.000001 0.000000 -0.000001 
0.676323 137.667755 -1.803522 -13.970713 -6.238267 0.243167 -0.000000 10.181581 0.131500 33.437403 -9.806397 0.556044 -0.000001 10.083512 -1.000793 -8.445182 -1.632943 0.873653 0.000000 9.100008 -1.373402 -8.401931 -1.653433 1.172595 0.000000 16.671696 -2.516199 14.468142 3.222915 -4.636754 0.000001 9.617916 1.684992 -1.470767 20.371471 -10.602939 0.000006 17.815201 2.585005 -0.000000 0.000000 -0.000001 3.067604 6.409500 9.283603 -0.000000 0.000000 -0.000001 -3.067595 6.409500 9.283504 -0.000000 0.000000 -0.000001 4.570405 10.945974 -2.627999 -2.728714 10.337518 17.432234 10.592403 -0.524594 -2.232107 -31.160464 22.256031 -62.158464 27.841497 0.000009 -0.000002 -0.000033 -56.649586 -0.000007 28.328812 -0.000002 0.000000 35.059183 12.830373 34.803318 2.466091 -1.576223 2.681670 3.340241 8.560560 0.585270 3.229790 -1.864717 1.864737 1.208326 -0.209990 -1.050828 2.652620 -1.531504 1.531481 -1.796045 -0.545216 2.879910 1.954604 -1.128474 1.128499 -0.000002 -0.000001 0.000000 9.109295 -0.518109 2.259852 0.765988 3.249042 -34.122379 3.676386 -0.000014 0.000015 0.000001 0.000005 -0.000019 2.883092 0.000003 0.000014 0.023729 -0.572262 4.747624 2.392700 -0.000012 -0.000003 0.000002 0.000000 -0.000000 9.533405 0.000004 -0.000010 0.816275 3.257256 -27.697054 3.698204 -0.000002 -0.000006 0.028489 0.626982 -5.202696 2.950897 0.000009 0.000011 0.007450 -0.320800 2.659217 2.833903 -0.000016 -0.000003 0.000000 -0.000003 -0.000004 9.104489 -0.043066 -1.865134 1.205204 3.994853 -27.712982 3.153986 -0.000017 0.000002 0.028385 0.625903 -5.193847 2.937699 -0.000010 0.000018 0.005953 -0.286729 2.376694 2.647505 0.000016 0.000003 -0.000001 0.000001 0.000001 8.077804 -0.486971 -3.806327 4.552647 8.810086 -33.930870 3.600003 -0.000008 -0.000004 -0.018112 -4.056670 -0.491021 2.114197 0.000010 0.000002 0.015590 -0.464026 3.847959 1.975693 -0.000015 0.000005 -0.000001 -0.000004 0.000000 -4.570002 10.946183 -2.627999 -0.009274 -1.305513 -4.764172 -10.592797 -0.524796 -2.232099 -10.690154 -58.191292 40.772903 -27.841499 0.000002 0.000001 0.000114 104.452150 -0.000121 -28.328798 -0.000008 -0.000009 19.227804 -31.407655 -23.303195 -8.076694 -0.486723 -3.806216 -3.596383 -9.426117 -19.652372 -3.600009 0.000002 0.000001 1.202038 -3.912880 34.142763 -2.114191 -0.000017 0.000016 0.222045 -1.746520 14.489640 -1.975706 0.000017 -0.000005 0.000001 -0.000000 -0.000001 -9.103603 -0.043042 -1.865105 -0.338711 -8.188608 -2.852426 -3.153995 -0.000020 -0.000000 0.375217 -2.257383 18.872284 -2.937703 -0.000011 -0.000008 -1.290206 -1.565313 10.684213 -2.647491 -0.000014 -0.000004 0.000002 0.000000 -0.000000 -9.532499 0.000002 0.000012 1.772159 -8.040938 13.465944 -3.698201 -0.000023 -0.000002 0.131846 -1.350373 11.152933 -2.950896 -0.000034 -0.000010 -0.627938 -0.467577 3.511056 -2.833894 -0.000061 -0.000029 0.000002 0.000000 0.000000 -9.108285 -0.517854 2.259868 4.506533 -8.989064 32.740737 -3.676402 0.000008 -0.000009 0.000003 -0.000956 0.007821 -2.883112 0.000023 -0.000005 0.016520 0.480182 -3.943399 -2.392694 0.000001 0.000009 0.000002 -0.000001 0.000000 -2.464784 -1.573958 2.681876 6.962309 -4.548415 11.465382 -3.229786 -1.864669 1.864727 4.211090 -7.407956 0.027583 -2.652540 -1.531461 1.531442 -1.212074 0.032558 -2.082867 -1.954615 -1.128495 1.128496 -0.000002 0.000001 0.000001 8.207800 -6.751716 -1.599599 -2.738326 -2.156727 6.083405 -0.000001 -44.370499 0.284601 36.710617 7.569578 -6.697969 0.000001 -44.427895 -2.982203 27.230533 0.855078 -8.366663 -0.000001 -8.728702 10.710594 -1.997360 -0.000000 0.000001 0.000001 -0.000699 9.278099 -0.000002 -0.000000 0.000000 -8.207800 -6.751709 -1.599596 -56.985627 -0.141717 3.119249 -0.000000 -44.370491 0.286193 86.021964 -4.596325 4.198992 -0.000002 -44.427711 -2.983803 -6.555817 -0.576081 5.629977 0.000000 -8.728700 10.710601 -0.833054 -0.000004 0.000002 0.000000 -0.000698 9.278103 0.000000 0.000000 -0.000001 
